<svg id="Layer_1" data-name="Layer 1" xmlns="http://www.w3.org/2000/svg" viewBox="0 0 1000 1000"><defs><style>.cls-1{fill:#fff;}</style></defs><path class="cls-1" d="M507.14,142.77c38.35-.65,75.14,6.4,108.85,25.35,45.78,25.73,70.06,66.65,80.87,116.79,1.34,6.22-.59,8.84-7.09,8.63-8.38-.27-16.78-.3-25.15.1-5.16.25-6.88-2.33-7.72-6.7-10-51.68-48.92-96.65-121.18-105.74-22.66-2.84-45.19-2.86-67.37,3.43-46.5,13.19-75.93,66.29-62.66,112.82,6.69,23.49,22.59,38.89,44.89,46.18C471.17,350.37,492.79,354,514,359c28.51,6.75,57.78,11.28,85.37,20.71,121.79,41.62,127.36,176.71,74.85,248.9-37,50.91-88,76.23-149.76,80.81-45,3.33-88.92-2.1-129.41-23.68C348.67,661,321.68,621.5,309.88,571c-2.67-11.42-1.78-12.14,10.11-12.25,6.43-.06,12.9.07,19.27-.59,6.6-.68,9.45,1.75,10.78,8.26,5.17,25.25,16.36,47.5,35,65.6,24.06,23.39,53.77,35.4,86.43,38.5A242.72,242.72,0,0,0,532.25,669c53.12-8.55,87.33-69.48,67.81-117.8-9-22.29-26.49-35.56-48.26-42.09-22.66-6.8-46.31-10.23-69.34-15.9-26-6.39-52.57-11.51-77.52-20.86C315.13,438.7,276.38,343.83,316.48,256.5,347,190.12,401.65,156,472,144.37a102.88,102.88,0,0,1,13.32-1.53C492.6,142.59,499.87,142.77,507.14,142.77ZM560.84,688c.2.53.41,1.05.62,1.57,3.39-1,6.83-1.85,10.18-3,65.81-22.36,105.64-83.81,101-155.09-3.58-55.46-31.51-93.29-82.66-113.44-17.55-6.91-36.28-11.1-54.75-15.31-28.83-6.57-58.48-10.17-86.74-18.53-43.72-12.91-68.91-43.48-72.74-89.46-4.13-49.67,15-89.39,54.52-119.36,4.55-3.45,10.05-5.67,15.11-8.45-.3-.66-.59-1.32-.89-2-8,2.88-16.5,5-24.1,8.77-57.27,28.62-84.24,76.57-85.57,139.22-1.27,60.3,29.93,104.82,86.7,124.86,18.62,6.58,38.14,10.72,57.43,15.2,25.83,6,52.18,10,77.66,17.15,28.13,7.91,50.61,24.64,64.62,51.14,29.6,56,4.29,133.24-53.37,163.07Z"/><path class="cls-1" d="M336.32,832.17V783h12.46v70.74c-8.16,2.32-14.19,1.16-19.37-6.56-9.3-13.87-19.67-27-31-42.28v49H286V783.52c8.37-2.58,14-.78,18.93,7.11,9.15,14.57,19.62,28.31,29.54,42.4Z"/><path class="cls-1" d="M212.69,781.46c22.28.12,37.68,15.4,37.5,37.24-.18,22.79-15.23,37.94-37.76,38s-37.79-15.35-37.73-37.92C174.77,795.94,189.63,781.33,212.69,781.46ZM236,818.7c-.1-15.36-9.58-25.73-23.6-25.8-14.26-.07-23.81,10.57-23.8,26.5,0,15.18,10,26.17,23.62,25.86C226.76,844.92,236.08,834.51,236,818.7Z"/><path class="cls-1" d="M801.62,830.25,818,853.77c-8.84,2.21-15.9,2.19-20.1-6.9-1.26-2.75-3.8-4.9-5.12-7.63-4.06-8.36-10.55-9.72-19.66-6.91V854H760.34V782.38c12.18,0,24.12-.56,36,.16,11.6.71,19.19,7.44,21.28,17,2.68,12.27-1.65,22.45-12.14,28.56C804.32,828.77,803.16,829.39,801.62,830.25Zm-28.21-36.87V820.7c7,0,13.46.42,19.8-.12,7.36-.62,12.07-6.35,12.16-13.6.09-7.57-4.22-12.86-12-13.49C786.86,793,780.22,793.38,773.41,793.38Z"/><path class="cls-1" d="M381.2,854.65c10-23.7,19.32-46,29.06-68.19.88-2,4.66-3.85,7-3.73,3.07.16,7.83,1.56,8.78,3.76,9.57,22.22,18.51,44.72,27.64,67.18-10.79,3.38-12.64,3-16.07-6.47-2.27-6.25-5.47-9.1-12.21-8.19a44.34,44.34,0,0,1-11.68,0c-8.89-1.21-14.74,1.1-17,10.82C394.79,858,388,854.08,381.2,854.65Zm36.6-58.06c-4.57,11.74-8.32,21.39-12.38,31.81h24.43Z"/><path class="cls-1" d="M725.2,854c-9.47,3.16-15.13,1-16.89-8.31-1.09-5.8-4.7-7.52-10.29-6.85a48.19,48.19,0,0,1-10.87,0c-9.45-1-16.35.59-19.12,11.64-.69,2.77-8,3.9-12.21,5.78-.65-.83-1.29-1.66-1.94-2.48q4.53-11,9.08-21.91C669.1,817.21,675,802.45,681.62,788c1.13-2.47,5-4.89,7.8-5.06s7.62,1.72,8.57,4C707.34,808.93,716.07,831.23,725.2,854Zm-23.63-26.25-12-30.43c-4.4,11.1-8,20.3-12.05,30.43Z"/><path class="cls-1" d="M89.16,848.32l4-8.6c6.83,2.14,13.23,4.6,19.84,6,3.37.72,7.72.54,10.58-1.07s6-5.42,6.27-8.51c.22-2.51-3-6.62-5.7-7.86-6.79-3.15-14.23-4.87-21.26-7.56-7.52-2.87-11.52-8.51-11.63-16.72-.11-8.59,3.26-15.14,11.06-19.13,10.6-5.43,27.16-4.19,38.26,3.32l-4.43,8.22c-8.42-1.14-15.48-3-22.39-2.6-3.26.21-7.86,4.48-8.77,7.76-.62,2.22,3.52,7.18,6.62,8.71,6.44,3.18,13.77,4.52,20.45,7.31,8,3.31,12.15,9.44,11.7,18.44-.44,8.65-4.35,14.81-12.36,18.29C118.44,860,99.27,857.37,89.16,848.32Z"/><path class="cls-1" d="M910.84,793.07H885.27v61.44h-13V793.74h-25c-.25-3.89-.46-7.06-.71-10.94h64.27Z"/><path class="cls-1" d="M499.2,844.22h34.41v10.37H486.67V782.84H499.2Z"/><path class="cls-1" d="M579.11,854.77H566.87V782.88h12.24Z"/></svg>